<svg width="296" height="296" viewBox="0 0 296 296" fill="none" xmlns="http://www.w3.org/2000/svg">
<g clip-path="url(#clip0_1_3)">
<path d="M284.16 0H11.84C5.30095 0 0 5.30094 0 11.84V284.16C0 290.699 5.30094 296 11.84 296H284.16C290.699 296 296 290.699 296 284.16V11.84C296 5.30095 290.699 0 284.16 0Z" fill="#FAFF69"/>
<mask id="mask0_1_3" style="mask-type:luminance" maskUnits="userSpaceOnUse" x="20" y="20" width="256" height="256">
<path d="M276 20H20V276H276V20Z" fill="white"/>
</mask>
<g mask="url(#mask0_1_3)">
<path d="M39.9957 42.5202C39.9957 41.128 41.128 39.9957 42.5202 39.9957H61.4704C62.8626 39.9957 63.9949 41.128 63.9949 42.5202V253.464C63.9949 254.856 62.8626 255.988 61.4704 255.988H42.5202C41.128 255.988 39.9957 254.856 39.9957 253.464V42.5202Z" fill="#1E1E1E"/>
<path d="M87.9994 42.5203C87.9994 41.128 89.1317 39.9958 90.524 39.9958H109.474C110.866 39.9958 111.999 41.128 111.999 42.5203V253.464C111.999 254.856 110.866 255.988 109.474 255.988H90.524C89.1317 255.988 87.9994 254.856 87.9994 253.464V42.5203Z" fill="#1E1E1E"/>
<path d="M135.998 42.5203C135.998 41.128 137.13 39.9958 138.522 39.9958H157.472C158.865 39.9958 159.997 41.128 159.997 42.5203V253.464C159.997 254.856 158.865 255.988 157.472 255.988H138.522C137.13 255.988 135.998 254.856 135.998 253.464V42.5203Z" fill="#1E1E1E"/>
<path d="M183.991 42.5203C183.991 41.128 185.123 39.9958 186.515 39.9958H205.465C206.858 39.9958 207.99 41.128 207.99 42.5203V253.464C207.99 254.856 206.858 255.988 205.465 255.988H186.515C185.123 255.988 183.991 254.856 183.991 253.464V42.5203Z" fill="#1E1E1E"/>
<path d="M232 126.523C232 125.13 233.132 123.998 234.524 123.998H253.474C254.867 123.998 255.993 125.13 255.993 126.523V169.472C255.993 170.864 254.861 171.996 253.474 171.996H234.524C233.132 171.996 232 170.864 232 169.472V126.523Z" fill="#1E1E1E"/>
</g>
</g>
<defs>
<clipPath id="clip0_1_3">
<rect width="296" height="296" fill="white"/>
</clipPath>
</defs>
</svg>
